<svg xmlns="http://www.w3.org/2000/svg" xmlns:xlink="http://www.w3.org/1999/xlink" viewBox="0 0 280 250" preserveAspectRatio="xMidYMid" style="display: block; shape-rendering: auto; background: transparent;" width="280" height="250"><style type="text/css">
  .ld-text text {
    text-anchor: middle;
    dominant-baseline: middle;
    font-size: 80px;
    opacity: 0;
    user-select: none;
    pointer-events: none;
  }
</style>
<g style="transform-origin:140px 125px;transform:scale(1)" class="ld-text">
<g transform="translate(140,125)">
  <g transform="scale(1.0000) translate(0,0)"><g class="path" style="opacity: 1; transform-origin: -54.74px -14.27px; transform: matrix3d(0.91, 0, 0, 0, 0, 0.91, 0, 0, 0, 0, 0.91, 0, 0, 0, 0, 1); animation: 1s linear -0.638s infinite normal forwards running animate-7jrzn188v9c; transform-box: view-box;"><path d="M39.76 24.95L39.76 24.95Q39.68 25.19 39.48 25.59Q39.28 25.99 39.04 26.43Q38.80 26.87 38.56 27.15Q38.32 27.43 38.24 27.35L38.24 27.35Q38.24 27.35 38.32 26.95Q38.40 26.55 38.52 26.07Q38.64 25.59 38.76 25.15Q38.88 24.71 38.88 24.55L38.88 24.55Q40.08 18.15 38.88 13.51Q37.68 8.87 34.84 5.91Q32 2.95 27.88 1.51Q23.76 0.07 19.20-0.01L19.20-0.01Q15.92-0.01 12.76 0.51Q9.60 1.03 7 1.83Q4.40 2.63 2.60 3.59Q0.80 4.55 0.32 5.43L0.32 5.43Q-0.24 6.39 0 5.19L0 5.19Q0.64 3.11 3.40 1.35Q6.16-0.41 9.84-1.53Q13.52-2.65 17.56-3.01Q21.60-3.37 24.88-2.57L24.88-2.57Q27.04-2.09 29.20-1.21Q31.36-0.33 33.32 0.91Q35.28 2.15 36.92 3.87Q38.56 5.59 39.68 7.83L39.68 7.83Q41.84 12.15 41.80 16.75Q41.76 21.35 39.76 24.95" style="fill: rgb(0, 0, 0);" transform="translate(-75.606,-26.394)"></path></g><g class="path" style="opacity: 1; transform-origin: -48.84px -5.43px; transform: matrix3d(0.91, 0, 0, 0, 0, 0.91, 0, 0, 0, 0, 0.91, 0, 0, 0, 0, 1); animation: 1s linear -0.616s infinite normal forwards running animate-7jrzn188v9c; transform-box: view-box;"><path d="M44.96 24.39L44.96 24.39Q43.44 28.87 40.92 32.47Q38.40 36.07 35.52 38.91Q32.64 41.75 29.60 43.83Q26.56 45.91 23.92 47.35L23.92 47.35Q23.12 47.75 22.56 47.99Q22 48.23 22 48.07L22 48.07Q21.84 47.99 22.44 47.55Q23.04 47.11 23.68 46.63L23.68 46.63Q28.16 43.03 32.36 39.03Q36.56 35.03 39.92 29.91L39.92 29.91Q41.60 27.27 42.48 24.11Q43.36 20.95 43.36 17.59Q43.36 14.23 42.44 10.95Q41.52 7.67 39.60 4.87L39.60 4.87Q37.04 1.19 33.40-0.97Q29.76-3.13 25.60-3.97Q21.44-4.81 17.04-4.49Q12.64-4.17 8.56-2.97L8.56-2.97Q7.92-2.81 7.80-2.73Q7.68-2.65 7.60-2.81L7.60-2.81Q7.52-2.97 7.84-3.13Q8.16-3.29 8.40-3.45L8.40-3.45Q10.16-4.41 12.96-5.21Q15.76-6.01 19.28-6.17Q22.80-6.33 26.80-5.57Q30.80-4.81 34.88-2.65L34.88-2.65Q39.28-0.25 41.72 3.43Q44.16 7.11 45.12 10.99Q46.08 14.87 45.92 18.51Q45.76 22.15 44.96 24.39" style="fill: rgb(0, 0, 0);" transform="translate(-75.606,-26.394)"></path></g><g class="path" style="opacity: 1; transform-origin: -56.73px 0.26px; transform: matrix3d(0.91, 0, 0, 0, 0, 0.91, 0, 0, 0, 0, 0.91, 0, 0, 0, 0, 1); animation: 1s linear -0.594s infinite normal forwards running animate-7jrzn188v9c; transform-box: view-box;"><path d="M10.16 51.83L10.16 51.83Q9.76 51.19 9.16 49.79Q8.56 48.39 8.24 46.47L8.24 46.47Q8.08 45.51 8.04 44.31Q8 43.11 8.08 42.03Q8.16 40.95 8.32 40.23Q8.48 39.51 8.80 39.51L8.80 39.51Q8.88 39.51 9 39.95Q9.12 40.39 9.24 40.95Q9.36 41.51 9.40 42.03Q9.44 42.55 9.44 42.79L9.44 42.79Q9.60 44.87 9.96 46.95Q10.32 49.03 11.04 50.95L11.04 50.95Q13.84 47.51 17.44 43.99Q21.04 40.47 24.48 36.83Q27.92 33.19 30.76 29.35Q33.60 25.51 34.88 21.43L34.88 21.43Q35.76 18.63 35.24 15.59Q34.72 12.55 33.20 10.07L33.20 10.07Q31.68 7.67 28.88 6.07Q26.08 4.47 22.72 3.83L22.72 3.83Q21.36 3.59 20.04 3.43Q18.72 3.27 17.28 3.27L17.28 3.27Q17.52 4.47 17.56 5.87Q17.60 7.27 17.52 8.63Q17.44 9.99 17.28 11.23Q17.12 12.47 16.88 13.43L16.88 13.43Q15.76 17.75 14.24 22.11Q12.72 26.47 11.04 30.47L11.04 30.47Q10.88 30.71 10.60 31.23Q10.32 31.75 10.16 31.75L10.16 31.75Q10 31.75 10 31.11Q10 30.47 10.08 30.23L10.08 30.23Q10.16 29.27 10.40 27.87Q10.64 26.47 10.92 25.03Q11.20 23.59 11.52 22.19Q11.84 20.79 12.16 19.83L12.16 19.83Q12.32 19.35 12.76 17.51Q13.20 15.67 13.68 13.27Q14.16 10.87 14.60 8.19Q15.04 5.51 15.20 3.27L15.20 3.27L14.24 3.27Q14.08 6.39 13.36 9.67Q12.64 12.95 11.64 16.27Q10.64 19.59 9.56 22.95Q8.48 26.31 7.68 29.67L7.68 29.67Q7.52 30.39 7.24 32.15Q6.96 33.91 6.80 36.11Q6.64 38.31 6.64 40.75Q6.64 43.19 7 45.39Q7.36 47.59 8.08 49.35Q8.80 51.11 10.16 51.83 zM36.72 23.75L36.72 23.75Q34.96 27.91 31.88 31.75Q28.80 35.59 25.20 39.15Q21.60 42.71 17.80 45.91Q14 49.11 10.88 51.99L10.88 51.99Q10.24 52.55 9.24 52.11Q8.24 51.67 7.76 51.03L7.76 51.03Q6.08 48.79 5.28 45.99Q4.48 43.19 4.32 40.19Q4.16 37.19 4.52 34.11Q4.88 31.03 5.60 28.15L5.60 28.15Q7.20 21.51 9.24 15.31Q11.28 9.11 12.24 3.51L12.24 3.51Q7.92 3.99 4.52 5.47Q1.12 6.95 0 9.03L0 9.03Q0 9.19-0.12 9.19Q-0.24 9.19-0.08 8.55L-0.08 8.55Q0.56 6.31 3.04 4.67Q5.52 3.03 8.96 2.11Q12.40 1.19 16.36 1.03Q20.32 0.87 24.08 1.51L24.08 1.51Q28.16 2.23 31.16 4.59Q34.16 6.95 35.88 10.11Q37.60 13.27 37.88 16.87Q38.16 20.47 36.72 23.75 zM19.52 5.59L19.52 5.59Q20.48 7.67 20.28 11.03Q20.08 14.39 19.36 18.03Q18.64 21.67 17.72 25.03Q16.80 28.39 16.32 30.47L16.32 30.47Q15.36 34.31 14 38.15Q12.64 41.99 11.76 44.87L11.76 44.87Q11.36 45.99 11.20 45.99L11.20 45.99Q10.96 45.99 10.96 45.55Q10.96 45.11 10.96 44.71L10.96 44.71Q11.20 38.79 12.68 33.03Q14.16 27.27 15.92 21.35L15.92 21.35Q16.96 17.75 17.92 13.83Q18.88 9.91 19.04 5.59L19.04 5.59Q19.04 5.03 19.20 4.95L19.20 4.95Q19.28 4.95 19.36 5.19Q19.44 5.43 19.52 5.59" style="fill: rgb(0, 0, 0);" transform="translate(-75.606,-26.394)"></path></g><g class="path" style="opacity: 1; transform-origin: -55.82px 20px; transform: matrix3d(0.91, 0, 0, 0, 0, 0.91, 0, 0, 0, 0, 0.91, 0, 0, 0, 0, 1); animation: 1s linear -0.572s infinite normal forwards running animate-7jrzn188v9c; transform-box: view-box;"><path d="M29.04 38.79L29.04 38.79Q29.12 38.87 28.72 39.43Q28.32 39.99 27.72 40.67Q27.12 41.35 26.52 42.03Q25.92 42.71 25.68 42.95L25.68 42.95Q24 44.63 22.28 46.35Q20.56 48.07 18.72 49.27L18.72 49.27L11.52 53.83Q11.36 53.91 11.08 53.99Q10.80 54.07 10.64 53.99L10.64 53.99Q10.48 53.91 10.52 53.75Q10.56 53.59 10.64 53.43L10.64 53.43Q10.72 53.27 10.88 53.11L10.88 53.11Q12.24 52.15 13.96 50.71Q15.68 49.27 17.52 47.75L17.52 47.75Q18.88 46.71 20.76 45.11Q22.64 43.51 24.44 42.07Q26.24 40.63 27.56 39.63Q28.88 38.63 29.04 38.79" style="fill: rgb(0, 0, 0);" transform="translate(-75.606,-26.394)"></path></g><g class="path" style="opacity: 1; transform-origin: -0.66px -26.79px; transform: matrix3d(0.91, 0, 0, 0, 0, 0.91, 0, 0, 0, 0, 0.91, 0, 0, 0, 0, 1); animation: 1s linear -0.55s infinite normal forwards running animate-7jrzn188v9c; transform-box: view-box;"><path d="M84.88-2.65L84.88-2.65Q85.44-3.05 85.36-2.69Q85.28-2.33 85.12-2.09L85.12-2.09Q84.40-0.97 83.24-0.17Q82.08 0.63 80.76 1.11Q79.44 1.59 78.16 1.83Q76.88 2.07 75.92 2.07L75.92 2.07Q73.44 2.07 70.80 1.59Q68.16 1.11 65.52 0.55L65.52 0.55Q65.36 0.55 64.96 0.39Q64.56 0.23 64.56 0.07L64.56 0.07Q64.40-0.17 64.84-0.33Q65.28-0.49 65.44-0.49L65.44-0.49Q66-0.65 66.92-0.77Q67.84-0.89 68.88-0.97Q69.92-1.05 70.84-1.05Q71.76-1.05 72.40-1.05L72.40-1.05Q74.16-0.89 76.04-0.89Q77.92-0.89 79.60-1.05Q81.28-1.21 82.68-1.61Q84.08-2.01 84.88-2.65" style="fill: rgb(0, 0, 0);" transform="translate(-75.606,-26.394)"></path></g><g class="path" style="opacity: 1; transform-origin: -6.1px -26.21px; transform: matrix3d(0.91, 0, 0, 0, 0, 0.91, 0, 0, 0, 0, 0.91, 0, 0, 0, 0, 1); animation: 1s linear -0.528s infinite normal forwards running animate-7jrzn188v9c; transform-box: view-box;"><path d="M86-5.29L86-5.29Q86.40-5.45 86.24-5.21Q86.08-4.97 86-4.89L86-4.89Q83.92-3.05 81.44-2.57Q78.96-2.09 76.28-2.21Q73.60-2.33 70.76-2.69Q67.92-3.05 65.04-2.89L65.04-2.89Q63.36-2.81 61.52-2.25Q59.68-1.69 58.04-0.69Q56.40 0.31 55.08 1.87Q53.76 3.43 53.04 5.43L53.04 5.43Q52.88 5.75 52.84 5.75Q52.80 5.75 52.76 5.67Q52.72 5.59 52.72 5.43Q52.72 5.27 52.72 5.19L52.72 5.19Q53.20 2.31 54.48 0.31Q55.76-1.69 57.52-2.93Q59.28-4.17 61.36-4.73Q63.44-5.29 65.52-5.37L65.52-5.37Q68.40-5.45 71.16-5.17Q73.92-4.89 76.52-4.65Q79.12-4.41 81.52-4.45Q83.92-4.49 86-5.29" style="fill: rgb(0, 0, 0);" transform="translate(-75.606,-26.394)"></path></g><g class="path" style="opacity: 1; transform-origin: -18.91px -22.01px; transform: matrix3d(0.91, 0, 0, 0, 0, 0.91, 0, 0, 0, 0, 0.91, 0, 0, 0, 0, 1); animation: 1s linear -0.506s infinite normal forwards running animate-7jrzn188v9c; transform-box: view-box;"><path d="M59.68 0.95L59.68 0.95Q59.84 1.19 59.20 1.75Q58.56 2.31 58.24 2.47L58.24 2.47Q57.60 2.95 57.04 3.39Q56.48 3.83 56 4.47L56 4.47Q55.36 5.19 54.92 5.91Q54.48 6.63 54.08 7.51L54.08 7.51Q53.92 8.07 53.76 8.07L53.76 8.07Q53.68 8.07 53.68 7.51L53.68 7.51L53.68 6.95Q53.84 5.75 54.16 4.79Q54.48 3.83 55.28 2.79L55.28 2.79Q55.60 2.31 56.36 1.87Q57.12 1.43 57.84 1.11Q58.56 0.79 59.12 0.71Q59.68 0.63 59.68 0.95" style="fill: rgb(0, 0, 0);" transform="translate(-75.606,-26.394)"></path></g><g class="path" style="opacity: 1; transform-origin: -10.7px -7.56px; transform: matrix3d(0.91, 0, 0, 0, 0, 0.91, 0, 0, 0, 0, 0.91, 0, 0, 0, 0, 1); animation: 1s linear -0.484s infinite normal forwards running animate-7jrzn188v9c; transform-box: view-box;"><path d="M81.28 2.71L81.28 2.71Q81.68 2.55 81.64 2.75Q81.60 2.95 81.44 3.11L81.44 3.11Q80.40 4.31 78.44 4.87Q76.48 5.43 74.24 5.63Q72 5.83 69.80 5.75Q67.60 5.67 66.16 5.67L66.16 5.67Q66.64 7.27 66.60 9.55Q66.56 11.83 66.20 14.43Q65.84 17.03 65.28 19.67Q64.72 22.31 64.16 24.63L64.16 24.63Q66.32 24.79 68.40 25.07Q70.48 25.35 72.40 25.47Q74.32 25.59 76.08 25.47Q77.84 25.35 79.52 24.71L79.52 24.71Q79.92 24.55 79.92 24.79Q79.92 25.03 79.76 25.19L79.76 25.19Q77.84 27.11 75.52 27.59Q73.20 28.07 70.64 27.91Q68.08 27.75 65.44 27.35Q62.80 26.95 60.16 27.03L60.16 27.03Q58.48 27.11 56.80 27.59Q55.12 28.07 53.56 29.03Q52 29.99 50.68 31.39Q49.36 32.79 48.56 34.71L48.56 34.71Q48.48 35.03 48.32 35.03L48.32 35.03Q48.16 35.03 48.16 34.75Q48.16 34.47 48.24 34.31L48.24 34.31Q48.64 31.99 49.60 30.47Q50.56 28.95 51.92 27.83L51.92 27.83Q53.28 22.07 55 16.31Q56.72 10.55 57.84 5.43L57.84 5.43Q57.76 5.43 57.32 5.39Q56.88 5.35 56.88 5.19L56.88 5.19Q56.88 5.03 57.12 4.87Q57.36 4.71 57.60 4.55L57.60 4.55Q60.96 2.95 64.48 2.83Q68 2.71 71.68 3.03L71.68 3.03Q74 3.19 76.36 3.35Q78.72 3.51 81.28 2.71 zM65.52 5.67L63.68 5.67Q63.76 7.67 63.68 9.43Q63.60 11.19 63.20 12.55L63.20 12.55Q62.48 15.43 61.60 18.55Q60.72 21.67 59.60 24.63L59.60 24.63Q59.92 24.55 60.32 24.55Q60.72 24.55 61.12 24.55L61.12 24.55L62.32 20.79Q63.44 17.27 64.36 13.51Q65.28 9.75 65.52 5.67L65.52 5.67 zM61.76 5.59L60.24 5.59Q59.60 10.39 57.92 15.43Q56.24 20.47 54.88 25.75L54.88 25.75Q55.52 25.51 56.04 25.31Q56.56 25.11 57.04 24.95L57.04 24.95Q57.44 23.35 57.84 21.87Q58.24 20.39 58.64 19.27L58.64 19.27Q58.80 18.79 59.20 17.43Q59.60 16.07 60.08 14.15Q60.56 12.23 61.04 9.99Q61.52 7.75 61.76 5.59L61.76 5.59" style="fill: rgb(0, 0, 0);" transform="translate(-75.606,-26.394)"></path></g><g class="path" style="opacity: 1; transform-origin: -6.23px 3.37px; transform: matrix3d(0.91, 0, 0, 0, 0, 0.91, 0, 0, 0, 0, 0.91, 0, 0, 0, 0, 1); animation: 1s linear -0.462s infinite normal forwards running animate-7jrzn188v9c; transform-box: view-box;"><path d="M78.80 27.35L78.80 27.35Q79.20 27.03 79.16 27.39Q79.12 27.75 78.96 27.91L78.96 27.91Q78.32 29.03 77.32 29.91Q76.32 30.79 75.20 31.31Q74.08 31.83 72.92 32.11Q71.76 32.39 70.88 32.31L70.88 32.31Q68.40 32.15 65.68 31.63Q62.96 31.11 60.48 30.55L60.48 30.55Q60.32 30.47 59.96 30.35Q59.60 30.23 59.60 29.99L59.60 29.99Q59.52 29.83 59.88 29.63Q60.24 29.43 60.40 29.43L60.40 29.43Q60.96 29.27 61.80 29.19Q62.64 29.11 63.56 29.03Q64.48 28.95 65.32 28.99Q66.16 29.03 66.72 29.11L66.72 29.11Q68.16 29.27 69.88 29.27Q71.60 29.27 73.32 29.03Q75.04 28.79 76.48 28.39Q77.92 27.99 78.80 27.35" style="fill: rgb(0, 0, 0);" transform="translate(-75.606,-26.394)"></path></g><g class="path" style="opacity: 1; transform-origin: -10.05px 15.48px; transform: matrix3d(0.91, 0, 0, 0, 0, 0.91, 0, 0, 0, 0, 0.91, 0, 0, 0, 0, 1); animation: 1s linear -0.44s infinite normal forwards running animate-7jrzn188v9c; transform-box: view-box;"><path d="M80.56 42.39L80.56 42.39Q80.72 42.31 80.72 42.47L80.72 42.47Q80.72 42.63 80.64 42.79L80.64 42.79Q78.88 44.71 76.76 45.19Q74.64 45.67 72.32 45.55Q70 45.43 67.60 44.95Q65.20 44.47 62.88 44.47L62.88 44.47Q59.92 44.39 56.84 45.83Q53.76 47.27 51.68 50.79L51.68 50.79Q51.44 51.11 51.36 51.11L51.36 51.11Q51.28 51.11 51.32 50.87Q51.36 50.63 51.36 50.55L51.36 50.55Q51.68 49.67 51.96 49.19Q52.24 48.71 52.56 48.07L52.56 48.07Q51.44 45.83 50.96 43.55Q50.48 41.27 50.40 38.79L50.40 38.79Q50.40 36.95 50.72 36.07Q51.04 35.19 52.88 34.23L52.88 34.23Q55.92 32.63 59.36 32.63Q62.80 32.63 66.24 33.03L66.24 33.03Q68.48 33.27 70.72 33.39Q72.96 33.51 75.36 32.71L75.36 32.71Q75.76 32.55 75.68 32.83Q75.60 33.11 75.44 33.27L75.44 33.27Q74.40 34.55 72.56 35.03Q70.72 35.51 68.64 35.63Q66.56 35.75 64.64 35.67Q62.72 35.59 61.60 35.67L61.60 35.67L61.12 35.67Q60.56 37.59 59.96 39.31Q59.36 41.03 58.80 42.63L58.80 42.63Q60 42.23 61.08 42.03Q62.16 41.83 63.36 41.91L63.36 41.91Q65.68 41.99 68 42.39Q70.32 42.79 72.52 43.07Q74.72 43.35 76.76 43.31Q78.80 43.27 80.56 42.39 zM58.40 35.59L58.40 35.59Q57.92 35.51 56.92 35.39Q55.92 35.27 54.72 35.43L54.72 35.43Q53.92 35.51 53.36 36.07Q52.80 36.63 52.72 37.43L52.72 37.43Q52.56 39.83 52.80 42.03Q53.04 44.23 53.60 46.55L53.60 46.55L54.56 45.35Q54.48 44.39 54.48 43.27Q54.48 42.15 54.60 41.23Q54.72 40.31 54.88 39.75Q55.04 39.19 55.28 39.19L55.28 39.19Q55.44 39.19 55.52 39.59Q55.60 39.99 55.68 40.47Q55.76 40.95 55.80 41.43Q55.84 41.91 55.84 42.15L55.84 42.15Q55.92 42.63 55.96 43.07Q56 43.51 56.08 43.99L56.08 43.99Q56.48 43.75 56.80 43.51Q57.12 43.27 57.52 43.11L57.52 43.11Q57.60 39.51 58.40 35.59" style="fill: rgb(0, 0, 0);" transform="translate(-75.606,-26.394)"></path></g><g class="path" style="opacity: 1; transform-origin: -4.57px 21.1px; transform: matrix3d(0.91, 0, 0, 0, 0, 0.91, 0, 0, 0, 0, 0.91, 0, 0, 0, 0, 1); animation: 1s linear -0.418s infinite normal forwards running animate-7jrzn188v9c; transform-box: view-box;"><path d="M80 45.03L80 45.03Q80 45.27 79.84 45.59L79.84 45.59Q79.36 46.71 78.48 47.55Q77.60 48.39 76.56 48.95Q75.52 49.51 74.44 49.79Q73.36 50.07 72.56 50.07L72.56 50.07Q69.76 50.07 67.48 49.43Q65.20 48.79 62.96 47.99L62.96 47.99Q62.80 47.91 62.48 47.75Q62.16 47.59 62.08 47.35L62.08 47.35Q62 47.19 62.40 47.03Q62.80 46.87 62.96 46.87L62.96 46.87Q63.44 46.79 64.20 46.75Q64.96 46.71 65.80 46.71Q66.64 46.71 67.44 46.75Q68.24 46.79 68.80 46.79L68.80 46.79Q70.16 46.87 71.76 46.91Q73.36 46.95 74.84 46.75Q76.32 46.55 77.64 46.15Q78.96 45.75 79.68 45.03L79.68 45.03Q79.92 44.79 80 45.03" style="fill: rgb(0, 0, 0);" transform="translate(-75.606,-26.394)"></path></g><g class="path" style="opacity: 1; transform-origin: -23.65px 7.44px; transform: matrix3d(0.91, 0, 0, 0, 0, 0.91, 0, 0, 0, 0, 0.91, 0, 0, 0, 0, 1); animation: 1s linear -0.396s infinite normal forwards running animate-7jrzn188v9c; transform-box: view-box;"><path d="M55.12 30.63L55.12 30.63Q55.12 30.87 54.60 31.35Q54.08 31.83 53.40 32.39Q52.72 32.95 52.12 33.43Q51.52 33.91 51.36 34.07L51.36 34.07Q50.72 34.71 50.16 35.31Q49.60 35.91 49.20 36.79L49.20 36.79Q48.80 37.51 48.80 36.99Q48.80 36.47 48.88 36.23L48.88 36.23Q49.04 35.59 49.40 34.51Q49.76 33.43 50.80 32.39L50.80 32.39Q51.28 31.99 51.96 31.55Q52.64 31.11 53.32 30.83Q54 30.55 54.52 30.47Q55.04 30.39 55.12 30.63" style="fill: rgb(0, 0, 0);" transform="translate(-75.606,-26.394)"></path></g><g class="path" style="opacity: 1; transform-origin: -9.6px 25.09px; transform: matrix3d(0.91, 0, 0, 0, 0, 0.91, 0, 0, 0, 0, 0.91, 0, 0, 0, 0, 1); animation: 1s linear -0.374s infinite normal forwards running animate-7jrzn188v9c; transform-box: view-box;"><path d="M77.04 50.47L77.04 50.47Q77.12 50.79 76.80 50.95L76.80 50.95Q75.84 51.75 74.12 52.11Q72.40 52.47 70.44 52.63Q68.48 52.79 66.64 52.79Q64.80 52.79 63.68 52.79L63.68 52.79Q61.68 52.79 59.48 52.51Q57.28 52.23 55.68 51.83L55.68 51.83Q55.52 51.75 55.24 51.71Q54.96 51.67 54.96 51.51L54.96 51.51Q54.96 51.35 55.24 51.23Q55.52 51.11 55.68 51.03L55.68 51.03Q58.72 50.07 61.88 50.19Q65.04 50.31 68.24 50.71L68.24 50.71Q70.24 51.03 72.28 51.19Q74.32 51.35 76.56 50.47L76.56 50.47Q77.04 50.31 77.04 50.47" style="fill: rgb(0, 0, 0);" transform="translate(-75.606,-26.394)"></path></g><g class="path" style="opacity: 1; transform-origin: -20.77px 23.72px; transform: matrix3d(0.91, 0, 0, 0, 0, 0.91, 0, 0, 0, 0, 0.91, 0, 0, 0, 0, 1); animation: 1s linear -0.352s infinite normal forwards running animate-7jrzn188v9c; transform-box: view-box;"><path d="M58.08 47.75L58.08 47.75Q58.08 47.99 57.56 48.35Q57.04 48.71 56.40 49.11Q55.76 49.51 55.16 49.87Q54.56 50.23 54.32 50.39L54.32 50.39Q53.68 50.95 53.20 51.35Q52.72 51.75 52.24 52.39L52.24 52.39Q51.84 52.79 51.68 52.79L51.68 52.79L51.60 52.79L51.60 52.71Q51.60 52.71 51.60 52.55L51.60 52.55Q52 51.35 52.44 50.55Q52.88 49.75 54 48.87L54 48.87Q54.48 48.55 55.12 48.19Q55.76 47.83 56.40 47.63Q57.04 47.43 57.52 47.43Q58 47.43 58.08 47.75" style="fill: rgb(0, 0, 0);" transform="translate(-75.606,-26.394)"></path></g><g class="path" style="opacity: 1; transform-origin: 36.46px -26.79px; transform: matrix3d(0.91, 0, 0, 0, 0, 0.91, 0, 0, 0, 0, 0.91, 0, 0, 0, 0, 1); animation: 1s linear -0.33s infinite normal forwards running animate-7jrzn188v9c; transform-box: view-box;"><path d="M122-2.65L122-2.65Q122.56-3.05 122.48-2.69Q122.40-2.33 122.24-2.09L122.24-2.09Q121.52-0.97 120.36-0.17Q119.20 0.63 117.88 1.11Q116.56 1.59 115.28 1.83Q114 2.07 113.04 2.07L113.04 2.07Q110.56 2.07 107.92 1.59Q105.28 1.11 102.64 0.55L102.64 0.55Q102.48 0.55 102.08 0.39Q101.68 0.23 101.68 0.07L101.68 0.07Q101.52-0.17 101.96-0.33Q102.40-0.49 102.56-0.49L102.56-0.49Q103.12-0.65 104.04-0.77Q104.96-0.89 106-0.97Q107.04-1.05 107.96-1.05Q108.88-1.05 109.52-1.05L109.52-1.05Q111.28-0.89 113.16-0.89Q115.04-0.89 116.72-1.05Q118.40-1.21 119.80-1.61Q121.20-2.01 122-2.65" style="fill: rgb(0, 0, 0);" transform="translate(-75.606,-26.394)"></path></g><g class="path" style="opacity: 1; transform-origin: 31.02px -26.21px; transform: matrix3d(0.91, 0, 0, 0, 0, 0.91, 0, 0, 0, 0, 0.91, 0, 0, 0, 0, 1); animation: 1s linear -0.308s infinite normal forwards running animate-7jrzn188v9c; transform-box: view-box;"><path d="M123.12-5.29L123.12-5.29Q123.52-5.45 123.36-5.21Q123.20-4.97 123.12-4.89L123.12-4.89Q121.04-3.05 118.56-2.57Q116.08-2.09 113.40-2.21Q110.72-2.33 107.88-2.69Q105.04-3.05 102.16-2.89L102.16-2.89Q100.48-2.81 98.64-2.25Q96.80-1.69 95.16-0.69Q93.52 0.31 92.20 1.87Q90.88 3.43 90.16 5.43L90.16 5.43Q90 5.75 89.96 5.75Q89.92 5.75 89.88 5.67Q89.84 5.59 89.84 5.43Q89.84 5.27 89.84 5.19L89.84 5.19Q90.32 2.31 91.60 0.31Q92.88-1.69 94.64-2.93Q96.40-4.17 98.48-4.73Q100.56-5.29 102.64-5.37L102.64-5.37Q105.52-5.45 108.28-5.17Q111.04-4.89 113.64-4.65Q116.24-4.41 118.64-4.45Q121.04-4.49 123.12-5.29" style="fill: rgb(0, 0, 0);" transform="translate(-75.606,-26.394)"></path></g><g class="path" style="opacity: 1; transform-origin: 18.21px -22.01px; transform: matrix3d(0.91, 0, 0, 0, 0, 0.91, 0, 0, 0, 0, 0.91, 0, 0, 0, 0, 1); animation: 1s linear -0.286s infinite normal forwards running animate-7jrzn188v9c; transform-box: view-box;"><path d="M96.80 0.95L96.80 0.95Q96.96 1.19 96.32 1.75Q95.68 2.31 95.36 2.47L95.36 2.47Q94.72 2.95 94.16 3.39Q93.60 3.83 93.12 4.47L93.12 4.47Q92.48 5.19 92.04 5.91Q91.60 6.63 91.20 7.51L91.20 7.51Q91.04 8.07 90.88 8.07L90.88 8.07Q90.80 8.07 90.80 7.51L90.80 7.51L90.80 6.95Q90.96 5.75 91.28 4.79Q91.60 3.83 92.40 2.79L92.40 2.79Q92.72 2.31 93.48 1.87Q94.24 1.43 94.96 1.11Q95.68 0.79 96.24 0.71Q96.80 0.63 96.80 0.95" style="fill: rgb(0, 0, 0);" transform="translate(-75.606,-26.394)"></path></g><g class="path" style="opacity: 1; transform-origin: 26.42px -7.56px; transform: matrix3d(0.91, 0, 0, 0, 0, 0.91, 0, 0, 0, 0, 0.91, 0, 0, 0, 0, 1); animation: 1s linear -0.264s infinite normal forwards running animate-7jrzn188v9c; transform-box: view-box;"><path d="M118.40 2.71L118.40 2.71Q118.80 2.55 118.76 2.75Q118.72 2.95 118.56 3.11L118.56 3.11Q117.52 4.31 115.56 4.87Q113.60 5.43 111.36 5.63Q109.12 5.83 106.92 5.75Q104.72 5.67 103.28 5.67L103.28 5.67Q103.76 7.27 103.72 9.55Q103.68 11.83 103.32 14.43Q102.96 17.03 102.40 19.67Q101.84 22.31 101.28 24.63L101.28 24.63Q103.44 24.79 105.52 25.07Q107.60 25.35 109.52 25.47Q111.44 25.59 113.20 25.47Q114.96 25.35 116.64 24.71L116.64 24.71Q117.04 24.55 117.04 24.79Q117.04 25.03 116.88 25.19L116.88 25.19Q114.96 27.11 112.64 27.59Q110.32 28.07 107.76 27.91Q105.20 27.75 102.56 27.35Q99.92 26.95 97.28 27.03L97.28 27.03Q95.60 27.11 93.92 27.59Q92.24 28.07 90.68 29.03Q89.12 29.99 87.80 31.39Q86.48 32.79 85.68 34.71L85.68 34.71Q85.60 35.03 85.44 35.03L85.44 35.03Q85.28 35.03 85.28 34.75Q85.28 34.47 85.36 34.31L85.36 34.31Q85.76 31.99 86.72 30.47Q87.68 28.95 89.04 27.83L89.04 27.83Q90.40 22.07 92.12 16.31Q93.84 10.55 94.96 5.43L94.96 5.43Q94.88 5.43 94.44 5.39Q94 5.35 94 5.19L94 5.19Q94 5.03 94.24 4.87Q94.48 4.71 94.72 4.55L94.72 4.55Q98.08 2.95 101.60 2.83Q105.12 2.71 108.80 3.03L108.80 3.03Q111.12 3.19 113.48 3.35Q115.84 3.51 118.40 2.71 zM102.64 5.67L100.80 5.67Q100.88 7.67 100.80 9.43Q100.72 11.19 100.32 12.55L100.32 12.55Q99.60 15.43 98.72 18.55Q97.84 21.67 96.72 24.63L96.72 24.63Q97.04 24.55 97.44 24.55Q97.84 24.55 98.24 24.55L98.24 24.55L99.44 20.79Q100.56 17.27 101.48 13.51Q102.40 9.75 102.64 5.67L102.64 5.67 zM98.88 5.59L97.36 5.59Q96.72 10.39 95.04 15.43Q93.36 20.47 92 25.75L92 25.75Q92.64 25.51 93.16 25.31Q93.68 25.11 94.16 24.95L94.16 24.95Q94.56 23.35 94.96 21.87Q95.36 20.39 95.76 19.27L95.76 19.27Q95.92 18.79 96.32 17.43Q96.72 16.07 97.20 14.15Q97.68 12.23 98.16 9.99Q98.64 7.75 98.88 5.59L98.88 5.59" style="fill: rgb(0, 0, 0);" transform="translate(-75.606,-26.394)"></path></g><g class="path" style="opacity: 1; transform-origin: 30.89px 3.37px; transform: matrix3d(0.91, 0, 0, 0, 0, 0.91, 0, 0, 0, 0, 0.91, 0, 0, 0, 0, 1); animation: 1s linear -0.242s infinite normal forwards running animate-7jrzn188v9c; transform-box: view-box;"><path d="M115.92 27.35L115.92 27.35Q116.32 27.03 116.28 27.39Q116.24 27.75 116.08 27.91L116.08 27.91Q115.44 29.03 114.44 29.91Q113.44 30.79 112.32 31.31Q111.20 31.83 110.04 32.11Q108.88 32.39 108 32.31L108 32.31Q105.52 32.15 102.80 31.63Q100.08 31.11 97.60 30.55L97.60 30.55Q97.44 30.47 97.08 30.35Q96.72 30.23 96.72 29.99L96.72 29.99Q96.64 29.83 97 29.63Q97.36 29.43 97.52 29.43L97.52 29.43Q98.08 29.27 98.92 29.19Q99.76 29.11 100.68 29.03Q101.60 28.95 102.44 28.99Q103.28 29.03 103.84 29.11L103.84 29.11Q105.28 29.27 107 29.27Q108.72 29.27 110.44 29.03Q112.16 28.79 113.60 28.39Q115.04 27.99 115.92 27.35" style="fill: rgb(0, 0, 0);" transform="translate(-75.606,-26.394)"></path></g><g class="path" style="opacity: 1; transform-origin: 27.07px 15.48px; transform: matrix3d(0.91, 0, 0, 0, 0, 0.91, 0, 0, 0, 0, 0.91, 0, 0, 0, 0, 1); animation: 1s linear -0.22s infinite normal forwards running animate-7jrzn188v9c; transform-box: view-box;"><path d="M117.68 42.39L117.68 42.39Q117.84 42.31 117.84 42.47L117.84 42.47Q117.84 42.63 117.76 42.79L117.76 42.79Q116 44.71 113.88 45.19Q111.76 45.67 109.44 45.55Q107.12 45.43 104.72 44.95Q102.32 44.47 100 44.47L100 44.47Q97.04 44.39 93.96 45.83Q90.88 47.27 88.80 50.79L88.80 50.79Q88.56 51.11 88.48 51.11L88.48 51.11Q88.40 51.11 88.44 50.87Q88.48 50.63 88.48 50.55L88.48 50.55Q88.80 49.67 89.08 49.19Q89.36 48.71 89.68 48.07L89.68 48.07Q88.56 45.83 88.08 43.55Q87.60 41.27 87.52 38.79L87.52 38.79Q87.52 36.95 87.84 36.07Q88.16 35.19 90 34.23L90 34.23Q93.04 32.63 96.48 32.63Q99.92 32.63 103.36 33.03L103.36 33.03Q105.60 33.27 107.84 33.39Q110.08 33.51 112.48 32.71L112.48 32.71Q112.88 32.55 112.80 32.83Q112.72 33.11 112.56 33.27L112.56 33.27Q111.52 34.55 109.68 35.03Q107.84 35.51 105.76 35.63Q103.68 35.75 101.76 35.67Q99.84 35.59 98.72 35.67L98.72 35.67L98.24 35.67Q97.68 37.59 97.08 39.31Q96.48 41.03 95.92 42.63L95.92 42.63Q97.12 42.23 98.20 42.03Q99.28 41.83 100.48 41.91L100.48 41.91Q102.80 41.99 105.12 42.39Q107.44 42.79 109.64 43.07Q111.84 43.35 113.88 43.31Q115.92 43.27 117.68 42.39 zM95.52 35.59L95.52 35.59Q95.04 35.51 94.04 35.39Q93.04 35.27 91.84 35.43L91.84 35.43Q91.04 35.51 90.48 36.07Q89.92 36.63 89.84 37.43L89.84 37.43Q89.68 39.83 89.92 42.03Q90.16 44.23 90.72 46.55L90.72 46.55L91.68 45.35Q91.60 44.39 91.60 43.27Q91.60 42.15 91.72 41.23Q91.84 40.31 92 39.75Q92.16 39.19 92.40 39.19L92.40 39.19Q92.56 39.19 92.64 39.59Q92.72 39.99 92.80 40.47Q92.88 40.95 92.92 41.43Q92.96 41.91 92.96 42.15L92.96 42.15Q93.04 42.63 93.08 43.07Q93.12 43.51 93.20 43.99L93.20 43.99Q93.60 43.75 93.92 43.51Q94.24 43.27 94.64 43.11L94.64 43.11Q94.72 39.51 95.52 35.59" style="fill: rgb(0, 0, 0);" transform="translate(-75.606,-26.394)"></path></g><g class="path" style="opacity: 1; transform-origin: 32.55px 21.1px; transform: matrix3d(0.91, 0, 0, 0, 0, 0.91, 0, 0, 0, 0, 0.91, 0, 0, 0, 0, 1); animation: 1s linear -0.198s infinite normal forwards running animate-7jrzn188v9c; transform-box: view-box;"><path d="M117.12 45.03L117.12 45.03Q117.12 45.27 116.96 45.59L116.96 45.59Q116.48 46.71 115.60 47.55Q114.72 48.39 113.68 48.95Q112.64 49.51 111.56 49.79Q110.48 50.07 109.68 50.07L109.68 50.07Q106.88 50.07 104.60 49.43Q102.32 48.79 100.08 47.99L100.08 47.99Q99.92 47.91 99.60 47.75Q99.28 47.59 99.20 47.35L99.20 47.35Q99.12 47.19 99.52 47.03Q99.92 46.87 100.08 46.87L100.08 46.87Q100.56 46.79 101.32 46.75Q102.08 46.71 102.92 46.71Q103.76 46.71 104.56 46.75Q105.36 46.79 105.92 46.79L105.92 46.79Q107.28 46.87 108.88 46.91Q110.48 46.95 111.96 46.75Q113.44 46.55 114.76 46.15Q116.08 45.75 116.80 45.03L116.80 45.03Q117.04 44.79 117.12 45.03" style="fill: rgb(0, 0, 0);" transform="translate(-75.606,-26.394)"></path></g><g class="path" style="opacity: 1; transform-origin: 13.47px 7.44px; transform: matrix3d(0.91, 0, 0, 0, 0, 0.91, 0, 0, 0, 0, 0.91, 0, 0, 0, 0, 1); animation: 1s linear -0.176s infinite normal forwards running animate-7jrzn188v9c; transform-box: view-box;"><path d="M92.24 30.63L92.24 30.63Q92.24 30.87 91.72 31.35Q91.20 31.83 90.52 32.39Q89.84 32.95 89.24 33.43Q88.64 33.91 88.48 34.07L88.48 34.07Q87.84 34.71 87.28 35.31Q86.72 35.91 86.32 36.79L86.32 36.79Q85.92 37.51 85.92 36.99Q85.92 36.47 86 36.23L86 36.23Q86.16 35.59 86.52 34.51Q86.88 33.43 87.92 32.39L87.92 32.39Q88.40 31.99 89.08 31.55Q89.76 31.11 90.44 30.83Q91.12 30.55 91.64 30.47Q92.16 30.39 92.24 30.63" style="fill: rgb(0, 0, 0);" transform="translate(-75.606,-26.394)"></path></g><g class="path" style="opacity: 1; transform-origin: 27.52px 25.09px; transform: matrix3d(0.91, 0, 0, 0, 0, 0.91, 0, 0, 0, 0, 0.91, 0, 0, 0, 0, 1); animation: 1s linear -0.154s infinite normal forwards running animate-7jrzn188v9c; transform-box: view-box;"><path d="M114.16 50.47L114.16 50.47Q114.24 50.79 113.92 50.95L113.92 50.95Q112.96 51.75 111.24 52.11Q109.52 52.47 107.56 52.63Q105.60 52.79 103.76 52.79Q101.92 52.79 100.80 52.79L100.80 52.79Q98.80 52.79 96.60 52.51Q94.40 52.23 92.80 51.83L92.80 51.83Q92.64 51.75 92.36 51.71Q92.08 51.67 92.08 51.51L92.08 51.51Q92.08 51.35 92.36 51.23Q92.64 51.11 92.80 51.03L92.80 51.03Q95.84 50.07 99 50.19Q102.16 50.31 105.36 50.71L105.36 50.71Q107.36 51.03 109.40 51.19Q111.44 51.35 113.68 50.47L113.68 50.47Q114.16 50.31 114.16 50.47" style="fill: rgb(0, 0, 0);" transform="translate(-75.606,-26.394)"></path></g><g class="path" style="opacity: 1; transform-origin: 16.35px 23.72px; transform: matrix3d(0.91, 0, 0, 0, 0, 0.91, 0, 0, 0, 0, 0.91, 0, 0, 0, 0, 1); animation: 1s linear -0.132s infinite normal forwards running animate-7jrzn188v9c; transform-box: view-box;"><path d="M95.20 47.75L95.20 47.75Q95.20 47.99 94.68 48.35Q94.16 48.71 93.52 49.11Q92.88 49.51 92.28 49.87Q91.68 50.23 91.44 50.39L91.44 50.39Q90.80 50.95 90.32 51.35Q89.84 51.75 89.36 52.39L89.36 52.39Q88.96 52.79 88.80 52.79L88.80 52.79L88.72 52.79L88.72 52.71Q88.72 52.71 88.72 52.55L88.72 52.55Q89.12 51.35 89.56 50.55Q90 49.75 91.12 48.87L91.12 48.87Q91.60 48.55 92.24 48.19Q92.88 47.83 93.52 47.63Q94.16 47.43 94.64 47.43Q95.12 47.43 95.20 47.75" style="fill: rgb(0, 0, 0);" transform="translate(-75.606,-26.394)"></path></g><g class="path" style="opacity: 1; transform-origin: 65.83px -26.68px; transform: matrix3d(0.91, 0, 0, 0, 0, 0.91, 0, 0, 0, 0, 0.91, 0, 0, 0, 0, 1); animation: 1s linear -0.11s infinite normal forwards running animate-7jrzn188v9c; transform-box: view-box;"><path d="M150.24-2.65L150.24-2.65Q150.08-1.53 149.24-0.65Q148.40 0.23 147.28 0.83Q146.16 1.43 144.92 1.79Q143.68 2.15 142.64 2.15L142.64 2.15Q141.36 2.15 139.64 1.83Q137.92 1.51 136.36 1.03Q134.80 0.55 133.72 0.07Q132.64-0.41 132.64-0.81L132.64-0.81Q132.64-0.97 132.96-1.05Q133.28-1.13 133.80-1.21Q134.32-1.29 134.88-1.29Q135.44-1.29 135.84-1.29L135.84-1.29Q137.44-1.29 139.40-1.13Q141.36-0.97 142.96-1.05L142.96-1.05Q144.24-1.05 145.12-1.13Q146-1.21 146.76-1.41Q147.52-1.61 148.24-1.89Q148.96-2.17 149.92-2.65L149.92-2.65Q150.08-2.81 150.24-2.65" style="fill: rgb(0, 0, 0);" transform="translate(-75.606,-26.394)"></path></g><g class="path" style="opacity: 1; transform-origin: 60.68px -27.84px; transform: matrix3d(0.91, 0, 0, 0, 0, 0.91, 0, 0, 0, 0, 0.91, 0, 0, 0, 0, 1); animation: 1s linear -0.088s infinite normal forwards running animate-7jrzn188v9c; transform-box: view-box;"><path d="M151.04-5.21L151.04-5.21Q151.04-4.41 150.28-3.85Q149.52-3.29 148.52-2.93Q147.52-2.57 146.44-2.37Q145.36-2.17 144.80-2.17L144.80-2.17Q141.84-2.17 138.80-2.81Q135.76-3.45 132.80-3.45L132.80-3.45Q129.28-3.45 126.48-1.81Q123.68-0.17 122.08 2.79L122.08 2.79Q121.92 3.03 121.68 3.03Q121.44 3.03 121.60 2.63L121.60 2.63Q122.88-1.29 125.68-3.61Q128.48-5.93 132.96-5.93L132.96-5.93Q136.32-5.93 139.64-5.17Q142.96-4.41 146.32-4.41L146.32-4.41Q147.52-4.41 148.84-4.69Q150.16-4.97 150.48-5.13L150.48-5.13Q150.56-5.21 150.80-5.25Q151.04-5.29 151.04-5.21" style="fill: rgb(0, 0, 0);" transform="translate(-75.606,-26.394)"></path></g><g class="path" style="opacity: 1; transform-origin: 49.55px -24.04px; transform: matrix3d(0.91, 0, 0, 0, 0, 0.91, 0, 0, 0, 0, 0.91, 0, 0, 0, 0, 1); animation: 1s linear -0.066s infinite normal forwards running animate-7jrzn188v9c; transform-box: view-box;"><path d="M128.40-0.33L128.40-0.33Q128.40-0.17 127.92 0.23Q127.44 0.63 126.80 1.07Q126.16 1.51 125.56 1.87Q124.96 2.23 124.72 2.39L124.72 2.39Q124 3.03 123.44 3.71Q122.88 4.39 122.24 5.11L122.24 5.11Q122.16 5.11 122.16 5.23Q122.16 5.35 122 5.35L122 5.35Q121.92 5.35 121.92 5.11L121.92 5.11Q121.92 4.15 122.48 3.11Q123.04 2.07 123.88 1.23Q124.72 0.39 125.80-0.13Q126.88-0.65 127.92-0.65L127.92-0.65Q128.40-0.65 128.40-0.33" style="fill: rgb(0, 0, 0);" transform="translate(-75.606,-26.394)"></path></g><g class="path" style="opacity: 1; transform-origin: 60.55px 8.18px; transform: matrix3d(0.91, 0, 0, 0, 0, 0.91, 0, 0, 0, 0, 0.91, 0, 0, 0, 0, 1); animation: 1s linear -0.044s infinite normal forwards running animate-7jrzn188v9c; transform-box: view-box;"><path d="M146.56 13.83L146.56 13.83Q146.64 17.75 145.76 22.03Q144.88 26.31 143.28 30.67Q141.68 35.03 139.64 39.27Q137.60 43.51 135.36 47.27Q133.12 51.03 130.88 54.23Q128.64 57.43 126.80 59.67L126.80 59.67Q126.72 59.75 126.56 59.95Q126.40 60.15 126.24 60.35Q126.08 60.55 125.92 60.59Q125.76 60.63 125.76 60.31L125.76 60.31Q125.68 60.07 126.68 58.11Q127.68 56.15 129.16 53.27Q130.64 50.39 132.44 47.03Q134.24 43.67 135.84 40.59Q137.44 37.51 138.64 35.15Q139.84 32.79 140.16 31.91L140.16 31.91Q141.04 29.51 141.96 26.83Q142.88 24.15 143.64 21.27Q144.40 18.39 144.84 15.35Q145.28 12.31 145.20 9.19L145.20 9.19Q145.20 8.55 145.28 8.55L145.28 8.55Q145.44 8.55 145.52 8.67Q145.60 8.79 145.76 9.35L145.76 9.35Q146 10.15 146.28 11.63Q146.56 13.11 146.56 13.83" style="fill: rgb(0, 0, 0);" transform="translate(-75.606,-26.394)"></path></g><g class="path" style="opacity: 1; transform-origin: 57.78px 8.45px; transform: matrix3d(0.91, 0, 0, 0, 0, 0.91, 0, 0, 0, 0, 0.91, 0, 0, 0, 0, 1); animation: 1s linear -0.022s infinite normal forwards running animate-7jrzn188v9c; transform-box: view-box;"><path d="M140.08 5.67L140.08 5.67Q139.44 12.23 138.08 17.47Q136.72 22.71 135.08 26.95Q133.44 31.19 131.64 34.63Q129.84 38.07 128.40 40.95L128.40 40.95Q126.88 43.99 125.56 47.03Q124.24 50.07 123.24 53.23Q122.24 56.39 121.64 59.75Q121.04 63.11 121.04 66.87L121.04 66.87Q121.04 67.75 120.88 67.59L120.88 67.59Q120.72 67.59 120.60 67.15Q120.48 66.71 120.32 66.11Q120.16 65.51 120.04 64.95Q119.92 64.39 119.92 63.99L119.92 63.99Q119.52 60.31 119.96 57.07Q120.40 53.83 121.32 50.83Q122.24 47.83 123.52 45.03Q124.80 42.23 126 39.35L126 39.35Q127.28 36.31 129.16 32.31Q131.04 28.31 132.88 23.87Q134.72 19.43 136.24 14.75Q137.76 10.07 138.32 5.67L138.32 5.67Q135.28 5.51 132.04 4.99Q128.80 4.47 126 3.67L126 3.67Q125.84 3.59 125.68 3.51Q125.52 3.43 125.52 3.27L125.52 3.27Q125.44 3.03 125.88 2.87Q126.32 2.71 126.40 2.71L126.40 2.71Q128.96 2.07 131.20 2.07L131.20 2.07Q134.24 2.07 137.20 2.67Q140.16 3.27 143.20 3.27L143.20 3.27Q144.16 3.27 145.24 3.07Q146.32 2.87 146.72 2.71L146.72 2.71Q147.04 2.55 147.04 2.75Q147.04 2.95 146.96 3.11L146.96 3.11Q146.24 3.99 145.24 4.51Q144.24 5.03 143.12 5.35L143.12 5.35Q143.36 6.39 143.44 7.23Q143.52 8.07 143.60 8.71L143.60 8.71Q144.08 12.79 143.16 17.31Q142.24 21.83 140.48 26.35Q138.72 30.87 136.32 35.23Q133.92 39.59 131.44 43.27L131.44 43.27Q130.80 44.15 130.52 43.83Q130.24 43.51 130.64 42.47L130.64 42.47Q131.12 41.19 132.16 38.91Q133.20 36.63 134.32 34.19Q135.44 31.75 136.40 29.59Q137.36 27.43 137.68 26.47L137.68 26.47Q139.76 19.99 140.68 14.75Q141.60 9.51 141.44 5.59L141.44 5.59Q141.04 5.67 140.72 5.67Q140.40 5.67 140.08 5.67" style="fill: rgb(0, 0, 0);" transform="translate(-75.606,-26.394)"></path></g><g class="path" style="opacity: 1; transform-origin: 48.43px 34.23px; transform: matrix3d(0.91, 0, 0, 0, 0, 0.91, 0, 0, 0, 0, 0.91, 0, 0, 0, 0, 1); animation: 1s linear 0s infinite normal forwards running animate-7jrzn188v9c; transform-box: view-box;"><path d="M126.08 52.39L126.08 52.39Q126.08 52.87 125.84 54.11Q125.60 55.35 125.28 56.79Q124.96 58.23 124.64 59.55Q124.32 60.87 124.24 61.51L124.24 61.51Q123.84 63.19 123.64 64.87Q123.44 66.55 123.28 68.39L123.28 68.39Q123.28 68.55 123.24 68.87Q123.20 69.19 122.96 69.19L122.96 69.19Q122.80 69.11 122.72 68.71Q122.64 68.31 122.56 68.15L122.56 68.15Q122.40 67.43 122.20 66.27Q122 65.11 122 64.47L122 64.47Q122 62.47 122.40 60.27Q122.80 58.07 123.36 56.23Q123.92 54.39 124.56 53.19Q125.20 51.99 125.76 52.07L125.76 52.07Q125.92 52.15 125.96 52.23Q126 52.31 126.08 52.39" style="fill: rgb(0, 0, 0);" transform="translate(-75.606,-26.394)"></path></g></g><text dy="0.35em" fill="#000000" font-family="Akronim" font-size="80">DEEJ</text>
</g>
</g><style type="text/css">@keyframes animate-7jrzn188v9c { 0.00% {transform: translate(0.00px,0.00px) rotate(0.00deg) scale(0.91, 0.91) skew(0deg, 0.00deg) ;opacity: 1.00;}4.00% {transform: translate(0.00px,0.00px) rotate(0.00deg) scale(0.91, 0.91) ;}8.00% {animation-timing-function: cubic-bezier(0.69,0.60,0.35,0.27);transform: translate(0.00px,0.00px) rotate(0.00deg) scale(0.91, 0.91) ;}14.00% {transform: translate(0.00px,0.00px) rotate(0.00deg) scale(0.93, 0.93) ;}18.00% {transform: translate(0.00px,0.00px) rotate(0.00deg) scale(0.94, 0.94) ;}22.00% {animation-timing-function: cubic-bezier(0.67,0.66,0.34,0.33);transform: translate(0.00px,0.00px) rotate(0.00deg) scale(0.96, 0.96) ;}26.00% {transform: translate(0.00px,0.00px) rotate(0.00deg) scale(0.97, 0.97) ;}30.00% {transform: translate(0.00px,0.00px) rotate(0.00deg) scale(0.99, 0.99) ;}34.00% {animation-timing-function: cubic-bezier(0.65,0.71,0.32,0.38);transform: translate(0.00px,0.00px) rotate(0.00deg) scale(1.01, 1.01) ;}40.00% {animation-timing-function: cubic-bezier(0.64,0.74,0.31,0.41);transform: translate(0.00px,0.00px) rotate(0.00deg) scale(1.02, 1.02) ;}46.00% {animation-timing-function: cubic-bezier(0.60,0.91,0.23,0.63);transform: translate(0.00px,0.00px) rotate(0.00deg) scale(1.03, 1.03) ;}50.00% {transform: translate(0.00px,0.00px) rotate(0.00deg) scale(1.03, 1.03) ;}54.00% {transform: translate(0.00px,0.00px) rotate(0.00deg) scale(1.03, 1.03) ;}58.00% {animation-timing-function: cubic-bezier(0.69,0.60,0.35,0.27);transform: translate(0.00px,0.00px) rotate(0.00deg) scale(1.03, 1.03) ;}64.00% {transform: translate(0.00px,0.00px) rotate(0.00deg) scale(1.01, 1.01) ;}68.00% {transform: translate(0.00px,0.00px) rotate(0.00deg) scale(1.00, 1.00) ;}72.00% {animation-timing-function: cubic-bezier(0.67,0.66,0.34,0.33);transform: translate(0.00px,0.00px) rotate(0.00deg) scale(0.98, 0.98) ;}76.00% {animation-timing-function: cubic-bezier(0.66,0.68,0.33,0.35);transform: translate(0.00px,0.00px) rotate(0.00deg) scale(0.97, 0.97) ;}82.00% {animation-timing-function: cubic-bezier(0.65,0.71,0.32,0.38);transform: translate(0.00px,0.00px) rotate(0.00deg) scale(0.94, 0.94) ;}88.00% {animation-timing-function: cubic-bezier(0.65,0.73,0.31,0.40);transform: translate(0.00px,0.00px) rotate(0.00deg) scale(0.92, 0.92) ;}94.00% {animation-timing-function: cubic-bezier(0.63,0.80,0.28,0.48);transform: translate(0.00px,0.00px) rotate(0.00deg) scale(0.91, 0.91) ;}100.00% {animation-timing-function: cubic-bezier(0.63,0.80,0.28,0.48);transform: translate(0.00px,0.00px) rotate(0.00deg) scale(0.91, 0.91) ;} }</style><!-- [ldio] generated by https://loading.io --></svg>